<svg xmlns="http://www.w3.org/2000/svg" xml:lang="en" height="143.17419999999998pt" width="186.06999999999996pt" viewBox="-32.94199999999999 -120.4382 186.06999999999996 143.17419999999998"><circle cx="48.60000000000001" cy="-97.19999999999999" r="16.2" style="stroke:black;fill:none;stroke-width:2;" /><circle cx="129.59999999999997" cy="-48.600000000000016" r="16.2" style="stroke:black;fill:none;stroke-width:2;" /><path d="M 0.0,-0.0 L 2.4179120240665554e-15,-39.4875 M 3.533871419789581e-15,-57.7125 L 5.951783443856136e-15,-97.19999999999999" style="stroke:black;fill:none;stroke-width:2;stroke-linecap:round;stroke-linejoin:round;" /><path d="M 12.150000000000004,-57.7125 L -12.149999999999995,-57.7125" style="stroke:black;fill:none;stroke-width:2;stroke-linecap:round;stroke-linejoin:round;" /><path d="M 6.075000000000004,-51.637499999999996 L -6.074999999999996,-51.637499999999996" style="stroke:black;fill:none;stroke-width:2;stroke-linecap:round;stroke-linejoin:round;" /><path d="M 12.150000000000004,-45.5625 L -12.149999999999995,-45.5625" style="stroke:black;fill:none;stroke-width:2;stroke-linecap:round;stroke-linejoin:round;" /><path d="M 6.075000000000003,-39.4875 L -6.074999999999997,-39.4875" style="stroke:black;fill:none;stroke-width:2;stroke-linecap:round;stroke-linejoin:round;" /><path d="M 5.951783443856136e-15,-97.19999999999999 L 32.400000000000006,-97.19999999999999 L 32.400000000000006,-97.19999999999999 M 64.8,-97.19999999999999 L 64.8,-97.19999999999999 L 97.19999999999999,-97.19999999999999" style="stroke:black;fill:none;stroke-width:2;stroke-linecap:round;stroke-linejoin:round;" /><path d="M 97.19999999999999,-97.19999999999999 L 97.19999999999999,-64.8 L 105.3,-62.1 L 89.1,-56.699999999999996 L 105.29999999999998,-51.300000000000004 L 89.09999999999998,-45.9 L 105.29999999999998,-40.5 L 89.09999999999998,-35.1 L 97.19999999999997,-32.4 L 97.19999999999997,-0.0" style="stroke:black;fill:none;stroke-width:2;stroke-linecap:round;stroke-linejoin:round;" /><path d="M 97.19999999999997,-0.0 L 48.59999999999998,-5.951783443856136e-15 L -1.4388490399142028e-14,-1.1903566887712272e-14" style="stroke:black;fill:none;stroke-width:2;stroke-linecap:round;stroke-linejoin:round;" /><path d="M -1.4388490399142028e-14,-1.1903566887712272e-14 L -1.4388490399142028e-14,12.959999999999988 L -8.100000000000014,12.959999999999988 L 8.099999999999985,12.959999999999988 M -5.670000000000014,16.84799999999999 L 5.669999999999985,16.84799999999999 M -1.6200000000000143,20.73599999999999 L 1.6199999999999857,20.73599999999999" style="stroke:black;fill:none;stroke-width:2;stroke-linecap:round;stroke-linejoin:round;" /><path d="M 97.19999999999997,-97.20000000000002 L 113.39999999999998,-97.20000000000002 L 129.59999999999997,-97.20000000000002" style="stroke:black;fill:none;stroke-width:2;stroke-linecap:round;stroke-linejoin:round;" /><path d="M 129.59999999999997,-97.20000000000002 L 129.59999999999997,-64.80000000000001 L 129.59999999999997,-64.80000000000001 M 129.59999999999997,-32.40000000000001 L 129.59999999999997,-32.40000000000001 L 129.59999999999997,-1.4388490399142028e-14" style="stroke:black;fill:none;stroke-width:2;stroke-linecap:round;stroke-linejoin:round;" /><path d="M 129.59999999999997,-1.4388490399142028e-14 L 113.39999999999996,-1.6372418213760742e-14 L 97.19999999999996,-1.8356346028379453e-14" style="stroke:black;fill:none;stroke-width:2;stroke-linecap:round;stroke-linejoin:round;" /><g><g fill="black"><symbol id="STIXTwoMath-Regular_1075" width="270" height="51.216" viewBox="0 -31.524 270 51.216"><path d="M 3.24 -2.616 L 0.54 -2.616 L 0.54 -3.396 L 3.24 -3.396 Z " /></symbol><use href="#STIXTwoMath-Regular_1075" transform="translate(-19.799999999999997 -60.701750000000004) scale(1.1666666666666667)" /></g></g><g><g fill="black"><symbol id="STIXTwoMath-Regular_3680" width="527" height="51.216" viewBox="0 -31.524 527 51.216"><path d="M 2.58 0.0 L 0.012 -7.884 L 1.104 -7.884 L 2.4 -3.636 Q 2.604 -2.94, 2.7720000000000002 -2.334 Q 2.94 -1.728, 3.168 -1.032 L 3.228 -1.032 Q 3.444 -1.728, 3.6180000000000003 -2.334 Q 3.7920000000000003 -2.94, 3.996 -3.636 L 5.28 -7.884 L 6.324 -7.884 L 3.7680000000000002 0.0 Z " /></symbol><use href="#STIXTwoMath-Regular_3680" transform="translate(-22.767999999999994 -81.72925000000001) scale(1.1666666666666667)" /></g></g><g><g fill="black"><symbol id="STIXTwoMath-Regular_1196" width="658" height="51.216" viewBox="0 -31.524 658 51.216"><path d="M 7.896 -2.7 L 4.752 -2.7 L 4.752 0.48 L 3.888 0.48 L 3.888 -2.7 L 0.744 -2.7 L 0.744 -3.516 L 3.888 -3.516 L 3.888 -6.696 L 4.752 -6.696 L 4.752 -3.516 L 7.896 -3.516 Z " /></symbol><use href="#STIXTwoMath-Regular_1196" transform="translate(-25.469999999999995 -106.89550000000001) scale(1.1666666666666667)" /></g></g><g><g fill="black"><symbol id="STIXTwoMath-Regular_3667" width="178" height="51.216" viewBox="0 -31.524 178 51.216"><path d="M 1.104 0.0 L 1.104 -7.884 L 2.136 -7.884 L 2.136 0.0 Z " /></symbol><use href="#STIXTwoMath-Regular_3667" transform="translate(46.71000000000001 -130.32925) scale(1.1666666666666667)" /></g></g><g><g fill="black"><symbol id="STIXTwoMath-Regular_1196" width="658" height="51.216" viewBox="0 -31.524 658 51.216"><path d="M 7.896 -2.7 L 4.752 -2.7 L 4.752 0.48 L 3.888 0.48 L 3.888 -2.7 L 0.744 -2.7 L 0.744 -3.516 L 3.888 -3.516 L 3.888 -6.696 L 4.752 -6.696 L 4.752 -3.516 L 7.896 -3.516 Z " /></symbol><use href="#STIXTwoMath-Regular_1196" transform="translate(75.78 -106.89550000000001) scale(1.1666666666666667)" /></g></g><g><g fill="black"><symbol id="STIXTwoMath-Regular_3676" width="557" height="51.216" viewBox="0 -31.524 557 51.216"><path d="M 1.104 0.0 L 1.104 -7.884 L 3.636 -7.884 Q 4.452 -7.884, 5.088 -7.668 Q 5.724 -7.452, 6.084 -6.9719999999999995 Q 6.444 -6.492, 6.444 -5.676 Q 6.444 -4.728, 5.952 -4.176 Q 5.46 -3.624, 4.644 -3.432 L 6.684 0.0 L 5.5200000000000005 0.0 L 3.588 -3.3240000000000003 L 2.136 -3.3240000000000003 L 2.136 0.0 Z M 2.136 -4.152 L 3.48 -4.152 Q 4.416 -4.152, 4.92 -4.524 Q 5.424 -4.896, 5.424 -5.664 Q 5.424 -6.432, 4.92 -6.744 Q 4.416 -7.056, 3.48 -7.056 L 2.136 -7.056 Z " /></symbol><use href="#STIXTwoMath-Regular_3676" transform="translate(77.698 -81.72925000000001) scale(1.1666666666666667)" /></g></g><g><g fill="black"><symbol id="STIXTwoMath-Regular_1075" width="270" height="51.216" viewBox="0 -31.524 270 51.216"><path d="M 3.24 -2.616 L 0.54 -2.616 L 0.54 -3.396 L 3.24 -3.396 Z " /></symbol><use href="#STIXTwoMath-Regular_1075" transform="translate(81.44999999999999 -60.701750000000004) scale(1.1666666666666667)" /></g></g><g><g fill="black"><symbol id="STIXTwoMath-Regular_3680" width="527" height="51.216" viewBox="0 -31.524 527 51.216"><path d="M 2.58 0.0 L 0.012 -7.884 L 1.104 -7.884 L 2.4 -3.636 Q 2.604 -2.94, 2.7720000000000002 -2.334 Q 2.94 -1.728, 3.168 -1.032 L 3.228 -1.032 Q 3.444 -1.728, 3.6180000000000003 -2.334 Q 3.7920000000000003 -2.94, 3.996 -3.636 L 5.28 -7.884 L 6.324 -7.884 L 3.7680000000000002 0.0 Z " /></symbol><use href="#STIXTwoMath-Regular_3680" transform="translate(125.91099999999997 -81.72925000000002) scale(1.1666666666666667)" /></g></g><circle cx="129.59999999999997" cy="-97.20000000000002" r="2.4299999999999997" style="stroke:black;fill:black;stroke-width:2;" /><circle cx="129.59999999999997" cy="-1.4388490399142028e-14" r="2.4299999999999997" style="stroke:black;fill:black;stroke-width:2;" /></svg>